<svg fill="#000" height="800" width="800" version="1.1" id="Layer_1" xmlns="http://www.w3.org/2000/svg" viewBox="0 0 496 496" xml:space="preserve"><path d="M463.96 317.432C462.6 270.088 423.664 232 376 232c-33.72 0-63.928 18.928-78.744 48.776A55.241 55.241 0 0 0 288 280c-21.76 0-41.408 12.664-50.576 32.056C207.736 313.408 184 337.984 184 368c0 30.88 25.128 56 56 56h200c30.872 0 56-25.12 56-56 0-21.744-12.656-41.384-32.04-50.568zM440 408H240c-22.056 0-40-17.944-40-40s17.944-40 40-40c.496 0 .976.04 1.464.072l6.832.416 1.992-5.704C255.904 306.768 271.064 296 288 296c3.896 0 7.784.576 11.536 1.712l6.992 2.104 2.736-6.768C320.336 265.68 346.52 248 376 248c39.704 0 72 32.304 72 72l-.336 8.344 5.544 1.944C469.232 335.904 480 351.064 480 368c0 22.056-17.944 40-40 40zM312 208c0-21.744-12.656-41.384-32.04-50.568C278.6 110.088 239.664 72 192 72c-33.72 0-63.928 18.928-78.744 48.776A55.241 55.241 0 0 0 104 120c-21.76 0-41.408 12.664-50.576 32.056C23.736 153.408 0 177.984 0 208c0 30.88 25.128 56 56 56h200c30.872 0 56-25.12 56-56zm-296 0c0-22.056 17.944-40 40-40 .496 0 .976.04 1.464.072l6.832.416 1.992-5.704C71.904 146.768 87.064 136 104 136c3.896 0 7.784.576 11.536 1.712l6.992 2.104 2.736-6.768C136.336 105.68 162.52 88 192 88c39.704 0 72 32.304 72 72l-.336 8.344 5.544 1.944C285.232 175.904 296 191.064 296 208c0 22.056-17.944 40-40 40H56c-22.056 0-40-17.944-40-40z"/></svg>